<svg width="24" height="31" viewBox="0 0 24 31" fill="none" xmlns="http://www.w3.org/2000/svg">
<path d="M10.8281 29.8311C2.27344 17.5264 0.75 16.2373 0.75 11.667C0.75 5.45605 5.73047 0.416992 12 0.416992C18.2109 0.416992 23.25 5.45605 23.25 11.667C23.25 16.2373 21.668 17.5264 13.1133 29.8311C12.5859 30.6514 11.3555 30.6514 10.8281 29.8311ZM12 16.3545C14.5781 16.3545 16.6875 14.3037 16.6875 11.667C16.6875 9.08887 14.5781 6.97949 12 6.97949C9.36328 6.97949 7.3125 9.08887 7.3125 11.667C7.3125 14.3037 9.36328 16.3545 12 16.3545Z" fill="#2C2C2C"/>
</svg>
