<svg width="30" height="23" viewBox="0 0 30 23" fill="none" xmlns="http://www.w3.org/2000/svg">
<path d="M29.4141 7.94141C29.6484 7.76562 30 7.94141 30 8.23438V20.1875C30 21.7695 28.7109 23 27.1875 23H2.8125C1.23047 23 0 21.7695 0 20.1875V8.23438C0 7.94141 0.292969 7.76562 0.527344 7.94141C1.875 8.99609 3.57422 10.2852 9.55078 14.6211C10.7812 15.5 12.8906 17.4336 15 17.4336C17.0508 17.4336 19.2188 15.5 20.3906 14.6211C26.3672 10.2852 28.0664 8.99609 29.4141 7.94141ZM15 15.5C13.5938 15.5586 11.6602 13.8008 10.6641 13.0977C2.87109 7.47266 2.28516 6.94531 0.527344 5.53906C0.175781 5.30469 0 4.89453 0 4.42578V3.3125C0 1.78906 1.23047 0.5 2.8125 0.5H27.1875C28.7109 0.5 30 1.78906 30 3.3125V4.42578C30 4.89453 29.7656 5.30469 29.4141 5.53906C27.6562 6.94531 27.0703 7.47266 19.2773 13.0977C18.2812 13.8008 16.3477 15.5586 15 15.5Z" fill="#2C2C2C"/>
</svg>
