<svg width="47" height="47" viewBox="0 0 47 47" fill="none" xmlns="http://www.w3.org/2000/svg">
<path d="M3.92468 6.26667C4.13349 6.26667 4.34229 6.21444 4.5511 6.11L6.11714 4.54333C6.22154 4.33445 6.27374 4.12556 6.27374 3.91667C6.27374 3.70778 6.19544 3.525 6.03884 3.36833C5.88223 3.21167 5.69953 3.13334 5.49072 3.13334C5.28192 3.13334 5.07311 3.18555 4.86431 3.29L3.29827 4.85667C3.08946 5.17 3.06336 5.48333 3.21997 5.79667C3.37657 6.11 3.61148 6.26667 3.92468 6.26667ZM3.92468 10.1833C4.13349 10.1833 4.34229 10.1311 4.5511 10.0267L10.0322 4.54333C10.241 4.33445 10.2932 4.07333 10.1888 3.76C10.0844 3.44667 9.87564 3.23778 9.56243 3.13334C9.24922 3.02889 8.98821 3.08111 8.77941 3.29L3.29827 8.77333C3.08946 9.08667 3.06336 9.4 3.21997 9.71333C3.37657 10.0267 3.61148 10.1833 3.92468 10.1833ZM43.0757 0H3.92468C2.88066 0 1.96713 0.391666 1.18411 1.175C0.401093 1.95833 0.00958252 2.87222 0.00958252 3.91667V35.25C0.00958252 36.2944 0.401093 37.2083 1.18411 37.9917C1.96713 38.775 2.88066 39.1667 3.92468 39.1667H17.236V41.5167H14.887C14.0517 41.5167 13.3209 41.83 12.6945 42.4567C12.0681 43.0833 11.7549 43.8144 11.7549 44.65V45.4333C11.7549 45.8511 11.9115 46.2167 12.2247 46.53C12.5379 46.8433 12.9033 47 13.3209 47H33.6795C34.0971 47 34.4625 46.8433 34.7757 46.53C35.0889 46.2167 35.2455 45.8511 35.2455 45.4333V44.65C35.2455 43.8144 34.9323 43.0833 34.3059 42.4567C33.6795 41.83 32.9486 41.5167 32.1134 41.5167H29.7643V39.1667H43.0757C44.1197 39.1667 45.0332 38.775 45.8163 37.9917C46.5993 37.2083 46.9908 36.2944 46.9908 35.25V3.91667C46.9908 2.87222 46.5993 1.95833 45.8163 1.175C45.0332 0.391666 44.1197 0 43.0757 0ZM45.4248 31.3333H39.1606V17.2333H45.4248V31.3333ZM45.4248 15.6667H39.1606V9.4H45.4248V15.6667ZM45.4248 3.91667V7.83333H39.1606V1.56667H43.0757C43.7021 1.56667 44.2502 1.80167 44.72 2.27167C45.1898 2.74166 45.4248 3.29 45.4248 3.91667ZM3.92468 1.56667H37.5946V31.3333H1.57562V3.91667C1.57562 3.29 1.81053 2.74166 2.28034 2.27167C2.75015 1.80167 3.29827 1.56667 3.92468 1.56667ZM33.6795 44.65V45.4333H13.3209V44.65C13.3209 44.2322 13.4775 43.8667 13.7907 43.5533C14.1039 43.24 14.4694 43.0833 14.887 43.0833H32.1134C32.531 43.0833 32.8964 43.24 33.2096 43.5533C33.5228 43.8667 33.6795 44.2322 33.6795 44.65ZM28.1983 41.5167H18.8021V39.1667H28.1983V41.5167ZM43.0757 37.6H3.92468C3.29827 37.6 2.75015 37.365 2.28034 36.895C1.81053 36.425 1.57562 35.8767 1.57562 35.25V32.9H45.4248V35.25C45.4248 35.8767 45.1898 36.425 44.72 36.895C44.2502 37.365 43.7021 37.6 43.0757 37.6ZM25.8492 34.4667H21.1511C20.9423 34.4667 20.7596 34.545 20.603 34.7017C20.4464 34.8583 20.3681 35.0411 20.3681 35.25C20.3681 35.4589 20.4464 35.6417 20.603 35.7983C20.7596 35.955 20.9423 36.0333 21.1511 36.0333H25.8492C26.0581 36.0333 26.2408 35.955 26.3974 35.7983C26.554 35.6417 26.6323 35.4589 26.6323 35.25C26.6323 35.0411 26.554 34.8583 26.3974 34.7017C26.2408 34.545 26.0581 34.4667 25.8492 34.4667ZM40.1002 6.11C40.309 6.21444 40.5178 6.26667 40.7266 6.26667C40.9354 6.26667 41.1442 6.21444 41.353 6.11L42.2927 5.01333L43.2323 6.11C43.4411 6.21444 43.6499 6.26667 43.8587 6.26667C44.0675 6.26667 44.2502 6.18833 44.4068 6.03167C44.5634 5.875 44.6417 5.69222 44.6417 5.48333C44.6417 5.27444 44.5895 5.06556 44.4851 4.85667L42.9191 3.29C42.7103 3.18555 42.5015 3.13334 42.2927 3.13334C42.0839 3.13334 41.8751 3.18555 41.6663 3.29L40.1002 4.85667C39.9958 5.06556 39.9436 5.27444 39.9436 5.48333C39.9436 5.69222 39.9958 5.90111 40.1002 6.11ZM41.6663 29.61C41.8751 29.7144 42.0839 29.7667 42.2927 29.7667C42.5015 29.7667 42.7103 29.7144 42.9191 29.61L44.4851 28.0433C44.5895 27.8344 44.6417 27.6256 44.6417 27.4167C44.6417 27.2078 44.5634 27.025 44.4068 26.8683C44.2502 26.7117 44.0675 26.6333 43.8587 26.6333C43.6499 26.6333 43.4411 26.6856 43.2323 26.79L42.2927 27.8867L41.353 26.79C41.1442 26.6856 40.9354 26.6333 40.7266 26.6333C40.5178 26.6333 40.3351 26.7117 40.1785 26.8683C40.0219 27.025 39.9436 27.2078 39.9436 27.4167C39.9436 27.6256 39.9958 27.8344 40.1002 28.0433L41.6663 29.61ZM40.7266 13.3167H43.8587C44.0675 13.3167 44.2502 13.2383 44.4068 13.0817C44.5634 12.925 44.6417 12.7422 44.6417 12.5333C44.6417 12.3244 44.5634 12.1417 44.4068 11.985C44.2502 11.8283 44.0675 11.75 43.8587 11.75H40.7266C40.5178 11.75 40.3351 11.8283 40.1785 11.985C40.0219 12.1417 39.9436 12.3244 39.9436 12.5333C39.9436 12.7422 40.0219 12.925 40.1785 13.0817C40.3351 13.2383 40.5178 13.3167 40.7266 13.3167ZM4.08129 14.57C4.29009 15.3011 4.7599 15.6667 5.49072 15.6667V23.5C5.49072 23.9178 5.64733 24.2833 5.96054 24.5967C6.27374 24.91 6.63915 25.0667 7.05676 25.0667H19.5851C20.0027 25.0667 20.3681 24.91 20.6813 24.5967C20.9945 24.2833 21.1511 23.9178 21.1511 23.5V15.6667C21.8819 15.6667 22.3518 15.3011 22.5606 14.57C22.665 14.3611 22.6911 14.0739 22.6389 13.7083C22.5867 13.3428 22.4562 13.0556 22.2474 12.8467L21.1511 11.9067V7.83333C21.1511 7.41555 20.9945 7.05 20.6813 6.73667C20.3681 6.42333 20.0027 6.26667 19.5851 6.26667H18.019C17.6014 6.26667 17.236 6.39722 16.9228 6.65833C16.6096 6.91945 16.453 7.25889 16.453 7.67667L14.4172 5.95333C14.1039 5.64 13.7385 5.48333 13.3209 5.48333C12.9033 5.48333 12.5379 5.64 12.2247 5.95333L4.3945 12.8467C4.18569 13.0556 4.05519 13.3428 4.00299 13.7083C3.95078 14.0739 3.97688 14.3611 4.08129 14.57ZM12.5379 23.5V21.15C12.5379 20.9411 12.6162 20.7583 12.7728 20.6017C12.9294 20.445 13.1121 20.3667 13.3209 20.3667C13.5297 20.3667 13.7124 20.445 13.869 20.6017C14.0256 20.7583 14.1039 20.9411 14.1039 21.15V23.5H12.5379ZM15.67 23.5V21.15C15.67 20.5233 15.4351 19.975 14.9653 19.505C14.4955 19.035 13.9473 18.8 13.3209 18.8C12.6945 18.8 12.1464 19.035 11.6766 19.505C11.2068 19.975 10.9719 20.5233 10.9719 21.15V23.5H7.05676V15.6667H19.5851V23.5H15.67ZM18.019 7.83333H19.5851V10.4967L18.019 9.08667V7.83333ZM13.3209 7.05L21.1511 14.1H5.49072L13.3209 7.05ZM25.0662 20.3667H34.4625C34.6713 20.3667 34.854 20.2883 35.0106 20.1317C35.1672 19.975 35.2455 19.7922 35.2455 19.5833C35.2455 19.3744 35.1672 19.1917 35.0106 19.035C34.854 18.8783 34.6713 18.8 34.4625 18.8H25.0662C24.8574 18.8 24.6747 18.8783 24.5181 19.035C24.3615 19.1917 24.2832 19.3744 24.2832 19.5833C24.2832 19.7922 24.3615 19.975 24.5181 20.1317C24.6747 20.2883 24.8574 20.3667 25.0662 20.3667ZM25.0662 24.2833H34.4625C34.6713 24.2833 34.854 24.205 35.0106 24.0483C35.1672 23.8917 35.2455 23.7089 35.2455 23.5C35.2455 23.2911 35.1672 23.1083 35.0106 22.9517C34.854 22.795 34.6713 22.7167 34.4625 22.7167H25.0662C24.8574 22.7167 24.6747 22.795 24.5181 22.9517C24.3615 23.1083 24.2832 23.2911 24.2832 23.5C24.2832 23.7089 24.3615 23.8917 24.5181 24.0483C24.6747 24.205 24.8574 24.2833 25.0662 24.2833ZM25.0662 28.2H29.7643C29.9732 28.2 30.1559 28.1217 30.3125 27.965C30.4691 27.8083 30.5474 27.6256 30.5474 27.4167C30.5474 27.2078 30.4691 27.025 30.3125 26.8683C30.1559 26.7117 29.9732 26.6333 29.7643 26.6333H25.0662C24.8574 26.6333 24.6747 26.7117 24.5181 26.8683C24.3615 27.025 24.2832 27.2078 24.2832 27.4167C24.2832 27.6256 24.3615 27.8083 24.5181 27.965C24.6747 28.1217 24.8574 28.2 25.0662 28.2ZM27.4153 12.5333C27.4153 12.3244 27.337 12.1417 27.1804 11.985C27.0238 11.8283 26.8411 11.75 26.6323 11.75C26.4235 11.75 26.2408 11.8283 26.0842 11.985C25.9276 12.1417 25.8492 12.3244 25.8492 12.5333C25.8492 13.2644 26.1364 13.9172 26.7106 14.4917C27.2848 15.0661 28.0417 15.4578 28.9813 15.6667V16.45C28.9813 16.6589 29.0596 16.8417 29.2162 16.9983C29.3728 17.155 29.5555 17.2333 29.7643 17.2333C29.9732 17.2333 30.1559 17.155 30.3125 16.9983C30.4691 16.8417 30.5474 16.6589 30.5474 16.45V15.6667C31.487 15.4578 32.2439 15.0661 32.8181 14.4917C33.3923 13.9172 33.6795 13.2644 33.6795 12.5333C33.6795 11.8022 33.3923 11.1494 32.8181 10.575C32.2439 10.0006 31.487 9.60889 30.5474 9.4V6.42333C30.965 6.52778 31.3304 6.71056 31.6436 6.97167C31.9568 7.23278 32.1134 7.49389 32.1134 7.755C32.1134 8.01611 32.1917 8.225 32.3483 8.38167C32.5049 8.53833 32.6876 8.61666 32.8964 8.61666C33.1052 8.61666 33.2879 8.53833 33.4445 8.38167C33.6011 8.225 33.6795 8.04222 33.6795 7.83333C33.6795 7.10222 33.3923 6.44944 32.8181 5.875C32.2439 5.30056 31.487 4.90889 30.5474 4.7V3.91667C30.5474 3.70778 30.4691 3.525 30.3125 3.36833C30.1559 3.21167 29.9732 3.13334 29.7643 3.13334C29.5555 3.13334 29.3728 3.21167 29.2162 3.36833C29.0596 3.525 28.9813 3.70778 28.9813 3.91667V4.7C28.0417 4.90889 27.2848 5.30056 26.7106 5.875C26.1364 6.44944 25.8492 7.10222 25.8492 7.83333C25.8492 8.56445 26.1364 9.21722 26.7106 9.79167C27.2848 10.3661 28.0417 10.7578 28.9813 10.9667V13.9433C28.5637 13.8389 28.1983 13.6561 27.8851 13.395C27.5719 13.1339 27.4153 12.8467 27.4153 12.5333ZM32.1134 12.5333C32.1134 12.8467 31.9568 13.1339 31.6436 13.395C31.3304 13.6561 30.965 13.8389 30.5474 13.9433V11.1233C30.965 11.2278 31.3304 11.4106 31.6436 11.6717C31.9568 11.9328 32.1134 12.22 32.1134 12.5333ZM27.4153 7.83333C27.4153 7.52 27.5719 7.23278 27.8851 6.97167C28.1983 6.71056 28.5637 6.52778 28.9813 6.42333V9.24333C28.5637 9.13889 28.1983 8.95611 27.8851 8.695C27.5719 8.43389 27.4153 8.14667 27.4153 7.83333ZM9.40582 27.4167C9.40582 27.6256 9.48413 27.8083 9.64073 27.965C9.79733 28.1217 9.98004 28.2 10.1888 28.2C10.3977 28.2 10.5804 28.1217 10.737 27.965C10.8936 27.8083 10.9719 27.6256 10.9719 27.4167C10.9719 27.2078 10.8936 27.025 10.737 26.8683C10.5804 26.7117 10.3977 26.6333 10.1888 26.6333C9.98004 26.6333 9.79733 26.7117 9.64073 26.8683C9.48413 27.025 9.40582 27.2078 9.40582 27.4167ZM12.5379 27.4167C12.5379 27.6256 12.6162 27.8083 12.7728 27.965C12.9294 28.1217 13.1121 28.2 13.3209 28.2C13.5297 28.2 13.7124 28.1217 13.869 27.965C14.0256 27.8083 14.1039 27.6256 14.1039 27.4167C14.1039 27.2078 14.0256 27.025 13.869 26.8683C13.7124 26.7117 13.5297 26.6333 13.3209 26.6333C13.1121 26.6333 12.9294 26.7117 12.7728 26.8683C12.6162 27.025 12.5379 27.2078 12.5379 27.4167ZM15.67 27.4167C15.67 27.6256 15.7483 27.8083 15.9049 27.965C16.0615 28.1217 16.2442 28.2 16.453 28.2C16.6618 28.2 16.8445 28.1217 17.0011 27.965C17.1577 27.8083 17.236 27.6256 17.236 27.4167C17.236 27.2078 17.1577 27.025 17.0011 26.8683C16.8445 26.7117 16.6618 26.6333 16.453 26.6333C16.2442 26.6333 16.0615 26.7117 15.9049 26.8683C15.7483 27.025 15.67 27.2078 15.67 27.4167Z" fill="white"/>
</svg>
